# File created by Blade
# Date/Time:  Thu Jan 22 19:01:23 2015
#---------------------------------------------------------
:version 1.10
:name HOM
:units
  mass 1.0
  length 1.000000
  angle deg
:documentation
     Acclaim Skeleton File
:root
   axis xyz
   order TX TY TZ RX RY RZ
   position 0.000000 0.000000 0.000000
   orientation 0 0 0
:bonedata
   begin
      id 1
      name RightUpLeg_dum
      direction -1.000000 0.000000 0.000000
      length 4.478084
      axis 0.0 0.0 0.0 xyz
   end
   begin
      id 2
      name LeftUpLeg_dum
      direction 1.000000 0.000000 0.000000
      length 4.478084
      axis 0.0 0.0 0.0 xyz
   end
   begin
      id 3
      name Spine_dum
      direction 0.000000 1.000000 0.000000
      length 6.068208
      axis 0.0 0.0 0.0 xyz
   end
   begin
      id 4
      name RightUpLeg
      direction 0.000000 -1.000000 0.000000
      length 16.405774
      axis 0.0 0.0 0.0 xyz
      dof rx ry rz
   end
   begin
      id 5
      name RightLeg
      direction 0.000000 -1.000000 0.000000
      length 14.644143
      axis 0.0 0.0 0.0 xyz
      dof rx ry rz
   end
   begin
      id 6
      name RightFoot
      direction 0.000000 -0.258819 0.965926
      length 5.806150
      axis 15.0 0.0 0.0 xyz
      dof rx ry rz
   end
   begin
      id 7
      name RightToeBase
      direction 0.000000 0.000000 1.000000
      length 2.952750
      axis 0.0 0.0 0.0 xyz
      dof rx ry rz
   end
   begin
      id 8
      name LeftUpLeg
      direction 0.000000 -1.000000 0.000000
      length 16.405774
      axis 0.0 0.0 0.0 xyz
      dof rx ry rz
   end
   begin
      id 9
      name LeftLeg
      direction 0.000000 -1.000000 0.000000
      length 14.644143
      axis 0.0 0.0 0.0 xyz
      dof rx ry rz
   end
   begin
      id 10
      name LeftFoot
      direction 0.000000 -0.258819 0.965926
      length 5.806150
      axis 15.0 0.0 0.0 xyz
      dof rx ry rz
   end
   begin
      id 11
      name LeftToeBase
      direction 0.000000 0.000000 1.000000
      length 2.952750
      axis 0.0 0.0 0.0 xyz
      dof rx ry rz
   end
   begin
      id 12
      name Spine
      direction 0.000000 1.000000 0.000000
      length 0.000000
      axis 0.0 0.0 0.0 xyz
      dof rx ry rz
   end
   begin
      id 13
      name Spine_dum1
      direction 0.000000 1.000000 0.000000
      length 10.013923
      axis 0.0 0.0 0.0 xyz
   end
   begin
      id 14
      name Spine_dum2
      direction 0.000000 1.000000 0.000000
      length 10.013923
      axis 0.0 0.0 0.0 xyz
   end
   begin
      id 15
      name Spine_dum3
      direction 0.000000 1.000000 0.000000
      length 15.777476
      axis 0.0 0.0 0.0 xyz
   end
   begin
      id 16
      name RightShoulder
      direction -1.000000 0.000000 0.000000
      length 7.190220
      axis 0.0 0.0 90.0 xyz
      dof rx ry rz
   end
   begin
      id 17
      name RightArm
      direction -1.000000 0.000000 0.000000
      length 10.177469
      axis 0.0 0.0 90.0 xyz
      dof rx ry rz
   end
   begin
      id 18
      name RightForeArm
      direction -1.000000 0.000000 0.000000
      length 8.392114
      axis 0.0 0.0 90.0 xyz
      dof ry rz rx
   end
   begin
      id 19
      name RightHand
      direction -1.000000 0.000000 0.000000
      length 0.000000
      axis 0.0 0.0 90.0 xyz
      dof rx ry rz
   end
   begin
      id 20
      name RightHand_dum1
      direction -1.000000 0.000000 0.000000
      length 3.937000
      axis 0.0 0.0 90.0 xyz
   end
   begin
      id 21
      name RightHand_dum2
      direction 0.000000 0.000000 0.000000
      length 0.000000
      axis 0.0 0.0 90.0 xyz
   end
   begin
      id 22
      name RightHandThumb1
      direction 0.000000 0.000000 1.000000
      length 3.937000
      axis 0.0 0.0 90.0 xyz
      dof rx rz ry
   end
   begin
      id 23
      name LeftShoulder
      direction 1.000000 0.000000 0.000000
      length 7.190220
      axis 0.0 0.0 -90.0 xyz
      dof rx ry rz
   end
   begin
      id 24
      name LeftArm
      direction 1.000000 0.000000 0.000000
      length 10.177469
      axis 0.0 0.0 -90.0 xyz
      dof rx ry rz
   end
   begin
      id 25
      name LeftForeArm
      direction 1.000000 0.000000 0.000000
      length 8.392114
      axis 0.0 0.0 -90.0 xyz
      dof ry rz rx
   end
   begin
      id 26
      name LeftHand
      direction 1.000000 0.000000 0.000000
      length 0.000000
      axis 0.0 0.0 -90.0 xyz
      dof rx ry rz
   end
   begin
      id 27
      name LeftHand_dum1
      direction 1.000000 0.000000 0.000000
      length 3.937000
      axis 0.0 0.0 -90.0 xyz
   end
   begin
      id 28
      name LeftHand_dum2
      direction 0.000000 0.000000 0.000000
      length 0.000000
      axis 0.0 0.0 -90.0 xyz
   end
   begin
      id 29
      name LeftHandThumb1
      direction 0.000000 0.000000 1.000000
      length 3.937000
      axis 0.0 0.0 -90.0 xyz
      dof rx rz ry
   end
   begin
      id 30
      name Head
      direction 0.000000 1.000000 0.000000
      length 4.527550
      axis 0.0 0.0 0.0 xyz
      dof rx ry rz
   end
:hierarchy
   begin
      root RightUpLeg_dum LeftUpLeg_dum Spine_dum
      RightUpLeg_dum RightUpLeg
      LeftUpLeg_dum LeftUpLeg
      Spine_dum Spine
      RightUpLeg RightLeg
      RightLeg RightFoot
      RightFoot RightToeBase
      LeftUpLeg LeftLeg
      LeftLeg LeftFoot
      LeftFoot LeftToeBase
      Spine Spine_dum1 Spine_dum2 Spine_dum3
      Spine_dum1 RightShoulder
      Spine_dum2 LeftShoulder
      Spine_dum3 Head
      RightShoulder RightArm
      RightArm RightForeArm
      RightForeArm RightHand
      RightHand RightHand_dum1 RightHand_dum2
      RightHand_dum2 RightHandThumb1
      LeftShoulder LeftArm
      LeftArm LeftForeArm
      LeftForeArm LeftHand
      LeftHand LeftHand_dum1 LeftHand_dum2
      LeftHand_dum2 LeftHandThumb1
   end

# File created by Blade
# Date/Time:  Thu Jan 22 19:01:15 2015
# Frame Rate: 120.000 fps
#------------------------------------------------------
:FULLY-SPECIFIED
:DEGREES
690
root -2.749145 32.683640 -10.079423 61.630437 -1.011859 2.159216
RightUpLeg -74.235299 -3.472503 4.467169
RightLeg 2.763770 -0.000000 -0.000000
RightFoot 3.298256 -2.353858 3.247177
RightToeBase 6.688635 -0.000000 -0.000000
LeftUpLeg -72.215626 3.126230 -2.924221
LeftLeg -0.724853 -0.000000 0.000000
LeftFoot 6.070136 1.970469 -10.283036
LeftToeBase 9.614480 -0.000000 -0.000000
Spine 44.482764 -4.378730 -5.575812
RightShoulder -47.889146 -56.611468 0.474217
RightArm -3.410639 -20.064785 75.483219
RightForeArm -28.495653 -0.000000 4.124757
RightHand 4.676983 -0.000000 52.615196
RightHandThumb1 -24.326973 -0.000000 -32.862282
LeftShoulder -40.389039 45.691297 6.949354
LeftArm -26.877037 12.930966 -88.825196
LeftForeArm 36.873678 -0.000000 0.637432
LeftHand 2.689005 -0.000000 -48.933200
LeftHandThumb1 -26.253704 0.000000 33.147579
Head 11.951665 3.396541 -9.673071
691
root -2.751077 32.681867 -10.084339 61.743445 -1.041739 2.159531
RightUpLeg -74.359853 -3.444732 4.471460
RightLeg 2.755739 -0.000000 -0.000000
RightFoot 3.345543 -2.342818 3.111160
RightToeBase 6.665392 -0.000000 -0.000000
LeftUpLeg -72.355185 3.143849 -2.979321
LeftLeg -0.689389 -0.000000 0.000000
LeftFoot 6.069227 1.936196 -10.254081
LeftToeBase 9.681371 -0.000000 -0.000000
Spine 44.531961 -4.304596 -5.536344
RightShoulder -48.098194 -56.613699 0.668613
RightArm -3.497483 -19.961893 75.449338
RightForeArm -28.552668 0.000000 4.147042
RightHand 4.597732 -0.000000 52.799165
RightHandThumb1 -24.326973 -0.000000 -32.862282
LeftShoulder -40.227939 45.725470 7.122979
LeftArm -26.876940 12.980046 -88.801133
LeftForeArm 36.966864 -0.000000 0.618582
LeftHand 2.726482 -0.000000 -48.934504
LeftHandThumb1 -26.253704 0.000000 33.147579
Head 12.043588 3.312207 -9.620149
692
root -2.753100 32.680474 -10.086498 61.855180 -1.076196 2.152955
RightUpLeg -74.467256 -3.414623 4.495351
RightLeg 2.724704 -0.000000 -0.000000
RightFoot 3.396131 -2.321680 3.000999
RightToeBase 6.653013 -0.000000 -0.000000
LeftUpLeg -72.473852 3.162815 -3.013803
LeftLeg -0.682251 -0.000000 0.000000
LeftFoot 6.067233 1.928525 -10.239064
LeftToeBase 9.740954 -0.000000 -0.000000
Spine 44.565319 -4.431932 -5.628963
RightShoulder -47.998746 -56.728718 0.501434
RightArm -3.428651 -19.860464 75.450294
RightForeArm -28.763218 -0.000000 4.090365
RightHand 4.585523 -0.000000 52.611279
RightHandThumb1 -24.326973 -0.000000 -32.862282
LeftShoulder -40.343272 45.800809 6.992172
LeftArm -26.887032 12.911608 -88.735521
LeftForeArm 37.022381 -0.000000 0.609147
LeftHand 2.737968 -0.000000 -48.931950
LeftHandThumb1 -26.253704 0.000000 33.147579
Head 12.186817 3.500262 -9.755224
693
root -2.752958 32.678764 -10.089184 61.976959 -1.108741 2.154247
RightUpLeg -74.586846 -3.396981 4.516928
RightLeg 2.690627 -0.000000 -0.000000
RightFoot 3.431594 -2.294740 2.938549
RightToeBase 6.639926 -0.000000 -0.000000
LeftUpLeg -72.593920 3.167377 -3.049991
LeftLeg -0.692799 -0.000000 0.000000
LeftFoot 6.065783 1.942314 -10.234642
LeftToeBase 9.847189 -0.000000 -0.000000
Spine 44.590082 -4.495092 -5.663850
RightShoulder -47.991174 -56.769328 0.454803
RightArm -3.452387 -19.803401 75.436408
RightForeArm -28.836784 -0.000000 4.046358
RightHand 4.613290 -0.000000 52.591361
RightHandThumb1 -24.326973 -0.000000 -32.862282
LeftShoulder -40.363405 45.879685 6.942086
LeftArm -26.884167 12.949516 -88.713999
LeftForeArm 36.924145 -0.000000 0.613660
LeftHand 2.725052 -0.000000 -48.956397
LeftHandThumb1 -26.253704 0.000000 33.147579
Head 12.321526 3.552217 -9.855876
694
root -2.749455 32.676718 -10.094125 62.120690 -1.148517 2.169164
RightUpLeg -74.742098 -3.394050 4.524911
RightLeg 2.675466 -0.000000 -0.000000
RightFoot 3.462026 -2.265969 2.883983
RightToeBase 6.589672 -0.000000 -0.000000
LeftUpLeg -72.738178 3.153440 -3.097362
LeftLeg -0.702073 -0.000000 0.000000
LeftFoot 6.078979 1.956938 -10.187449
LeftToeBase 9.876694 -0.000000 -0.000000
Spine 44.562810 -4.560340 -5.690809
RightShoulder -48.046909 -56.864353 0.429351
RightArm -3.431574 -19.784972 75.421204
RightForeArm -28.884439 -0.000000 4.021476
RightHand 4.511006 0.000000 52.601460
RightHandThumb1 -24.326973 -0.000000 -32.862282
LeftShoulder -40.352662 45.997972 6.890816
LeftArm -26.873706 13.013870 -88.718409
LeftForeArm 36.911225 -0.000000 0.615683
LeftHand 2.770238 -0.000000 -48.980358
LeftHandThumb1 -26.253704 0.000000 33.147579
Head 12.523226 3.641395 -9.966385
695
root -2.748240 32.675674 -10.095218 62.280138 -1.164005 2.162791
RightUpLeg -74.882793 -3.386435 4.586415
RightLeg 2.619809 -0.000000 -0.000000
RightFoot 3.502319 -2.205427 2.851087
RightToeBase 6.592931 -0.000000 -0.000000
LeftUpLeg -72.892682 3.154681 -3.116400
LeftLeg -0.716194 -0.000000 0.000000
LeftFoot 6.077140 1.958560 -10.180291
LeftToeBase 9.932806 -0.000000 -0.000000
Spine 44.531340 -4.850600 -5.782926
RightShoulder -47.680065 -56.939709 -0.093990
RightArm -3.422907 -19.661601 75.464146
RightForeArm -29.068212 -0.000000 3.962816
RightHand 4.491870 -0.000000 52.684672
RightHandThumb1 -24.326973 -0.000000 -32.862282
LeftShoulder -40.564741 46.058452 6.530188
LeftArm -26.936896 12.952096 -88.653734
LeftForeArm 36.850731 -0.000000 0.611968
LeftHand 2.773277 -0.000000 -48.977587
LeftHandThumb1 -26.253704 0.000000 33.147579
Head 12.710354 3.969642 -10.355642
